<?xml version="1.0" encoding="UTF-8"?>
<svg version="1.1" xmlns="http://www.w3.org/2000/svg" width="512" height="512">
<path d="M0 0 C13.52711845 8.69905376 24.63681572 22.29265645 35.94837689 33.60083413 C38.65003153 36.30061613 41.35452491 38.99755222 44.05859375 41.69491577 C49.94926922 47.57210417 55.83625141 53.4529824 61.72239637 59.33470774 C65.40250192 63.01203813 69.08333886 66.68863585 72.7643013 70.36510849 C82.97308137 80.56171545 93.18092821 90.75925463 103.38532066 100.96025276 C104.03619954 101.61091207 104.68707842 102.26157138 105.35768089 102.93194764 C106.33617364 103.91011297 106.33617364 103.91011297 107.33443391 104.90803921 C108.65605986 106.22922171 109.97768736 107.55040264 111.29931641 108.87158203 C111.954873 109.5269172 112.6104296 110.18225237 113.28585155 110.85744618 C123.92594136 121.49358153 134.57277813 132.12293581 145.22250991 142.74941601 C156.17837897 153.68155907 167.12860155 164.61933147 178.07319701 175.56276119 C184.20976453 181.6984134 190.34871071 187.83164231 196.49390793 193.9586525 C201.72089286 199.17022058 206.94268745 204.38692049 212.15784375 209.61032642 C214.81610044 212.27248205 217.47669054 214.93218649 220.14392471 217.58535004 C223.03957183 220.4658609 225.92337647 223.35795029 228.8062439 226.25125122 C229.64437193 227.08132285 230.48249997 227.91139448 231.34602582 228.7666198 C238.94561753 236.43059345 244.95884002 243.24286954 245.1875 254.375 C244.90723265 273.93365719 222.87357893 288.84510049 209.96166587 301.76087689 C207.26188387 304.46253153 204.56494778 307.16702491 201.86758423 309.87109375 C195.99039583 315.76176922 190.1095176 321.64875141 184.22779226 327.53489637 C180.55046187 331.21500192 176.87386415 334.89583886 173.19739151 338.5768013 C163.00078455 348.78558137 152.80324537 358.99342821 142.60224724 369.19782066 C141.95158793 369.84869954 141.30092862 370.49957842 140.63055236 371.17018089 C139.65238703 372.14867364 139.65238703 372.14867364 138.65446079 373.14693391 C137.33327829 374.46855986 136.01209736 375.79018736 134.69091797 377.11181641 C134.0355828 377.767373 133.38024763 378.4229296 132.70505382 379.09835155 C122.06891847 389.73844136 111.43956419 400.38527813 100.81308399 411.03500991 C89.88094093 421.99087897 78.94316853 432.94110155 67.99973881 443.88569701 C61.8640866 450.02226453 55.73085769 456.16121071 49.6038475 462.30640793 C44.39227942 467.53339286 39.17557951 472.75518745 33.95217358 477.97034375 C31.29001795 480.62860044 28.63031351 483.28919054 25.97714996 485.95642471 C23.0966391 488.85207183 20.20454971 491.73587647 17.31124878 494.6187439 C16.06614133 495.87593595 16.06614133 495.87593595 14.7958802 497.15852582 C7.13190655 504.75811753 0.31963046 510.77134002 -10.8125 511 C-30.37115719 510.71973265 -45.28260049 488.68607893 -58.19837689 475.77416587 C-60.90003153 473.07438387 -63.60452491 470.37744778 -66.30859375 467.68008423 C-72.19926922 461.80289583 -78.08625141 455.9220176 -83.97239637 450.04029226 C-87.65250192 446.36296187 -91.33333886 442.68636415 -95.0143013 439.00989151 C-105.22308137 428.81328455 -115.43092821 418.61574537 -125.63532066 408.41474724 C-126.28619954 407.76408793 -126.93707842 407.11342862 -127.60768089 406.44305236 C-128.26000939 405.79094214 -128.91233789 405.13883192 -129.58443391 404.46696079 C-130.90605986 403.14577829 -132.22768736 401.82459736 -133.54931641 400.50341797 C-134.204873 399.8480828 -134.8604296 399.19274763 -135.53585155 398.51755382 C-146.17594136 387.88141847 -156.82277813 377.25206419 -167.47250991 366.62558399 C-178.42837897 355.69344093 -189.37860155 344.75566853 -200.32319701 333.81223881 C-206.45976453 327.6765866 -212.59871071 321.54335769 -218.74390793 315.4163475 C-223.97089286 310.20477942 -229.19268745 304.98807951 -234.40784375 299.76467358 C-237.06610044 297.10251795 -239.72669054 294.44281351 -242.39392471 291.78964996 C-245.28957183 288.9091391 -248.17337647 286.01704971 -251.0562439 283.12374878 C-251.89437193 282.29367715 -252.73249997 281.46360552 -253.59602582 280.6083802 C-261.19561753 272.94440655 -267.20884002 266.13213046 -267.4375 255 C-267.15723265 235.44134281 -245.12357893 220.52989951 -232.21166587 207.61412311 C-229.51188387 204.91246847 -226.81494778 202.20797509 -224.11758423 199.50390625 C-218.24039583 193.61323078 -212.3595176 187.72624859 -206.47779226 181.84010363 C-202.80046187 178.15999808 -199.12386415 174.47916114 -195.44739151 170.7981987 C-185.25078455 160.58941863 -175.05324537 150.38157179 -164.85224724 140.17717934 C-164.20158793 139.52630046 -163.55092862 138.87542158 -162.88055236 138.20481911 C-162.22844214 137.55249061 -161.57633192 136.90016211 -160.90446079 136.22806609 C-159.58327829 134.90644014 -158.26209736 133.58481264 -156.94091797 132.26318359 C-156.2855828 131.607627 -155.63024763 130.9520704 -154.95505382 130.27664845 C-144.31891847 119.63655864 -133.68956419 108.98972187 -123.06308399 98.33999009 C-112.13094093 87.38412103 -101.19316853 76.43389845 -90.24973881 65.48930299 C-84.1140866 59.35273547 -77.98085769 53.21378929 -71.8538475 47.06859207 C-66.64227942 41.84160714 -61.42557951 36.61981255 -56.20217358 31.40465625 C-53.54001795 28.74639956 -50.88031351 26.08580946 -48.22714996 23.41857529 C-45.3466391 20.52292817 -42.45454971 17.63912353 -39.56124878 14.7562561 C-38.73117715 13.91812807 -37.90110552 13.08000003 -37.0458802 12.21647418 C-27.0639343 2.31838257 -14.70535512 -6.40444642 0 0 Z M40.875 141.6875 C40.875 162.1475 40.875 182.6075 40.875 203.6875 C26.84677734 203.65269531 26.84677734 203.65269531 12.53515625 203.6171875 C6.60611868 203.60696699 0.67708752 203.59725609 -5.25195312 203.58984375 C-14.66025987 203.5779871 -24.06853073 203.56406573 -33.47680664 203.53662109 C-40.32950019 203.51664086 -47.18216455 203.50377259 -54.03488642 203.49932301 C-57.66088224 203.49672346 -61.28679461 203.49064507 -64.9127636 203.47603989 C-68.9678398 203.45983987 -73.02277237 203.45952328 -77.07788086 203.46044922 C-78.27047012 203.45325867 -79.46305939 203.44606812 -80.69178772 203.43865967 C-91.04016331 203.46418489 -99.37435008 204.32350382 -107.125 211.6875 C-113.03801253 219.00096287 -113.41917588 226.19475662 -113.35205078 235.21264648 C-113.35234283 236.24754715 -113.35263489 237.28244781 -113.35293579 238.34870911 C-113.35154811 241.75209078 -113.33601321 245.15525055 -113.3203125 248.55859375 C-113.31658038 250.92513408 -113.31373435 253.29167596 -113.31173706 255.65821838 C-113.30411632 261.87409767 -113.28448114 268.08988287 -113.2623291 274.3057251 C-113.23823155 281.77059739 -113.22908228 289.23550122 -113.21742249 296.70040131 C-113.19805593 308.02949956 -113.15972228 319.35839153 -113.125 330.6875 C-96.625 330.6875 -80.125 330.6875 -63.125 330.6875 C-63.125 305.6075 -63.125 280.5275 -63.125 254.6875 C-28.805 254.6875 5.515 254.6875 40.875 254.6875 C40.875 275.1475 40.875 295.6075 40.875 316.6875 C46.48539553 311.91139683 46.48539553 311.91139683 51.79185486 306.89089966 C52.48302399 306.20110519 53.17419312 305.51131073 53.88630676 304.8006134 C54.61854965 304.06477524 55.35079254 303.32893707 56.10522461 302.57080078 C57.29181671 301.38442772 57.29181671 301.38442772 58.50238037 300.17408752 C61.09641442 297.57936111 63.68689602 294.9811189 66.27734375 292.3828125 C68.08316034 290.57512933 69.88919896 288.76766794 71.69544983 286.9604187 C75.95052727 282.70192329 80.20337186 278.44121057 84.45512348 274.17939556 C89.29963409 269.32367012 94.14701732 264.47081665 98.9946326 259.618191 C108.95793322 249.64446499 118.9176579 239.6671745 128.875 229.6875 C124.41281514 224.3450939 119.70144608 219.37096801 114.77416992 214.45727539 C113.98486084 213.66621399 113.19555176 212.87515259 112.38232422 212.06011963 C109.79253607 209.46595675 107.19913931 206.87543702 104.60546875 204.28515625 C102.8002535 202.47926711 100.99518669 200.67322956 99.19026184 198.86705017 C95.41858468 195.09390233 91.64516157 191.32251271 87.87036133 187.55249023 C83.50241728 183.19001076 79.13811922 178.82390857 74.77565116 174.45595366 C70.57369635 170.2489254 66.36894766 166.04469829 62.16298866 161.8416729 C60.3739807 160.05333403 58.5857208 158.2642465 56.79820824 156.47441292 C54.31082793 153.9845099 51.82029399 151.49780622 49.32885742 149.01196289 C48.58446915 148.26555038 47.84008087 147.51913788 47.07313538 146.75010681 C46.39888519 146.07867645 45.72463501 145.40724609 45.029953 144.71546936 C44.44134585 144.12723924 43.8527387 143.53900911 43.24629498 142.93295383 C42.06036712 141.57544591 42.06036712 141.57544591 40.875 141.6875 Z " fill="#3b82f6" transform="translate(267.125,1.3125)"/>
</svg>
