<?xml version="1.0" encoding="UTF-8"?>
<svg version="1.1" xmlns="http://www.w3.org/2000/svg" width="265" height="265">
<path d="M0 0 C0.74572266 0.00217529 1.49144531 0.00435059 2.25976562 0.0065918 C4.5382459 0.00975365 6.81543021 -0.01370955 9.09375 -0.0390625 C10.53645669 -0.04133525 11.97916688 -0.0420391 13.421875 -0.04101562 C15.39800781 -0.04548706 15.39800781 -0.04548706 17.4140625 -0.05004883 C18.44789063 0.07281494 19.48171875 0.19567871 20.546875 0.32226562 C22.63466628 3.45395255 22.79821634 4.15854941 22.80757141 7.72015381 C22.81465622 8.61974319 22.82174103 9.51933258 22.82904053 10.44618225 C22.82656311 11.43106125 22.82408569 12.41594025 22.8215332 13.43066406 C22.82664413 14.47014694 22.83175507 15.50962982 22.83702087 16.58061218 C22.85096291 20.03101303 22.84995503 23.48121487 22.84765625 26.93164062 C22.85154388 29.33522618 22.85587869 31.73881104 22.86064148 34.14239502 C22.86811594 39.19309711 22.86780588 44.24372935 22.86254883 49.29443359 C22.85678707 55.73314386 22.87359922 62.17156338 22.8968935 68.61022568 C22.91171627 73.58286178 22.91249038 78.55542952 22.90938377 83.5280838 C22.90989384 85.89927999 22.91507192 88.27048033 22.92519569 90.64165497 C23.03951087 121.19354162 16.00602542 140.92811279 -5.703125 163.00976562 C-23.53085123 180.73126905 -41.21015548 189.75043026 -66.53515625 189.78125 C-67.87247803 189.77484497 -67.87247803 189.77484497 -69.23681641 189.76831055 C-71.94901005 189.75977857 -74.65910547 189.78869796 -77.37109375 189.8203125 C-92.05202618 189.88062396 -103.79362946 188.02131501 -115.453125 178.32226562 C-116.08863281 177.79890625 -116.72414063 177.27554688 -117.37890625 176.73632812 C-125.63847601 169.22762834 -130.67878838 159.1876784 -131.64671326 148.10586548 C-131.73034028 145.85802516 -131.75658316 143.61851643 -131.75390625 141.36914062 C-131.75819138 140.54706116 -131.7624765 139.72498169 -131.76689148 138.87799072 C-131.77259347 137.15027785 -131.77316583 135.42254098 -131.76879883 133.69482422 C-131.7656493 131.09234283 -131.78911364 128.49101249 -131.81445312 125.88867188 C-131.89596292 104.74154985 -126.26140735 89.54188915 -111.453125 74.32226562 C-110.793125 74.32226562 -110.133125 74.32226562 -109.453125 74.32226562 C-108.958125 72.83726563 -108.958125 72.83726563 -108.453125 71.32226562 C-89.42014457 53.47884647 -71.77688482 50.94749766 -46.59692383 51.06152344 C-43.73172554 51.07239424 -40.86713431 51.06148761 -38.00195312 51.04882812 C-36.16926946 51.05014737 -34.33658617 51.05270488 -32.50390625 51.05664062 C-31.65290848 51.05259216 -30.80191071 51.0485437 -29.92512512 51.04437256 C-29.13297104 51.05067688 -28.34081696 51.0569812 -27.5246582 51.06347656 C-26.48665825 51.06586334 -26.48665825 51.06586334 -25.4276886 51.06829834 C-23.11047013 51.36633771 -21.47654942 52.18181094 -19.453125 53.32226562 C-19.40374351 57.70050479 -19.3674146 62.07859709 -19.34326172 66.45703125 C-19.33319457 67.94696882 -19.31953982 69.4368866 -19.30224609 70.92675781 C-19.27802847 73.0664559 -19.26664936 75.20589315 -19.2578125 77.34570312 C-19.24733887 78.63395996 -19.23686523 79.9222168 -19.22607422 81.24951172 C-19.453125 84.32226562 -19.453125 84.32226562 -21.453125 86.32226562 C-23.31021118 86.58728027 -23.31021118 86.58728027 -25.59228516 86.609375 C-26.44722565 86.62278931 -27.30216614 86.63620361 -28.18301392 86.65002441 C-29.1100412 86.65530151 -30.03706848 86.66057861 -30.9921875 86.66601562 C-31.94701019 86.68063843 -32.90183289 86.69526123 -33.8855896 86.71032715 C-36.94972512 86.75693662 -40.01379639 86.79104108 -43.078125 86.82226562 C-47.09137928 86.86358695 -51.10419098 86.91742515 -55.1171875 86.97851562 C-56.0320694 86.98379272 -56.94695129 86.98906982 -57.88955688 86.99450684 C-69.15963899 87.16751106 -75.71175146 90.26438893 -84.078125 97.63476562 C-91.39443199 105.91374459 -94.80535404 113.57346781 -94.6484375 124.66210938 C-94.64419266 125.81254478 -94.64419266 125.81254478 -94.63986206 126.98622131 C-94.62875975 129.41090183 -94.60367467 131.83519872 -94.578125 134.25976562 C-94.5680823 135.91405713 -94.55895872 137.56835448 -94.55078125 139.22265625 C-94.52885317 143.25600485 -94.49439343 147.28907043 -94.453125 151.32226562 C-93.793125 151.32226562 -93.133125 151.32226562 -92.453125 151.32226562 C-92.453125 151.98226562 -92.453125 152.64226562 -92.453125 153.32226562 C-86.69048584 153.35259126 -80.93040792 153.33645754 -75.16796875 153.27954102 C-73.212934 153.26650101 -71.2577757 153.26557459 -69.30273438 153.27758789 C-54.44347287 153.35735386 -45.549748 151.94693357 -34.25390625 141.64648438 C-33.07779877 140.44718967 -31.91460167 139.23507751 -30.765625 138.00976562 C-30.16041016 137.39037109 -29.55519531 136.77097656 -28.93164062 136.1328125 C-25.81659888 133.00147003 -25.81659888 133.00147003 -23.453125 129.32226562 C-22.793125 129.32226562 -22.133125 129.32226562 -21.453125 129.32226562 C-21.205625 128.64164063 -20.958125 127.96101563 -20.703125 127.25976562 C-19.49768493 124.42698146 -18.03673423 121.93715373 -16.35546875 119.36132812 C-13.69221807 113.34307333 -14.29669592 106.0885671 -14.27954102 99.64526367 C-14.2695105 98.06847084 -14.2695105 98.06847084 -14.25927734 96.45982361 C-14.24527469 94.18726932 -14.23336562 91.91470135 -14.22332954 89.64212608 C-14.206873 86.04943674 -14.18363764 82.45685003 -14.15843201 78.86421204 C-14.08775221 68.65326053 -14.02733119 58.44226968 -13.97631836 48.23120117 C-13.94461063 41.97909591 -13.9033695 35.72711341 -13.85612297 29.47510719 C-13.84006886 27.09040329 -13.82776315 24.7056712 -13.81921577 22.32092857 C-13.80712439 18.9979228 -13.78300515 15.67520892 -13.75610352 12.35229492 C-13.75551437 11.36060303 -13.75492523 10.36891113 -13.75431824 9.34716797 C-13.74459991 8.44580612 -13.73488159 7.54444427 -13.72486877 6.61576843 C-13.72063684 5.83027461 -13.7164049 5.04478079 -13.71204472 4.23548412 C-12.87034194 -1.98405507 -4.72722735 0.018273 0 0 Z " fill="#F65806" transform="translate(150.453125,34.677734375)"/>
<path d="M0 0 C3.04101562 -0.35644531 3.04101562 -0.35644531 6.90625 -0.328125 C7.58675415 -0.32625183 8.2672583 -0.32437866 8.96838379 -0.32244873 C10.40752052 -0.31572456 11.84663886 -0.30180264 13.28564453 -0.28125 C15.49138324 -0.2501216 17.69640727 -0.24028244 19.90234375 -0.234375 C30.67264767 -0.16367616 30.67264767 -0.16367616 33 1 C34.39355676 8.20258573 34.12700822 15.51041138 34.09765625 22.81982422 C34.09573431 24.20690355 34.09427181 25.59398357 34.0932312 26.98106384 C34.09008459 29.95316754 34.08383828 32.9252424 34.07516479 35.89733505 C34.06159363 40.59481335 34.05573866 45.29228223 34.05102539 49.98977661 C34.03995281 59.9515305 34.02039067 69.91326149 34 79.875 C33.97797557 90.65117671 33.9574202 101.42734435 33.94658184 112.20353901 C33.94159245 116.87619033 33.93172374 121.54879853 33.91815186 126.22143245 C33.91071318 129.12013026 33.90738098 132.01882208 33.9051857 134.91752815 C33.90240999 136.90902072 33.89461051 138.90050429 33.88668823 140.89198303 C33.88658249 142.65835869 33.88658249 142.65835869 33.88647461 144.4604187 C33.884254 145.48796705 33.88203339 146.5155154 33.87974548 147.57420158 C33.8374218 150.01016017 33.8374218 150.01016017 35 152 C35.67579102 152.02505615 36.35158203 152.0501123 37.04785156 152.07592773 C40.1154168 152.19210742 43.18269158 152.31473437 46.25 152.4375 C47.31347656 152.47681641 48.37695312 152.51613281 49.47265625 152.55664062 C50.49746094 152.59853516 51.52226562 152.64042969 52.578125 152.68359375 C53.99206543 152.73858032 53.99206543 152.73858032 55.43457031 152.79467773 C58 153 58 153 62 154 C62 165.22 62 176.44 62 188 C58.8545338 189.5727331 55.4820216 189.18407666 52.02734375 189.203125 C51.23026505 189.20882507 50.43318634 189.21452515 49.61195374 189.22039795 C47.9197828 189.22985621 46.22759338 189.2363852 44.53540039 189.24023438 C41.97182918 189.24987096 39.4090837 189.28085638 36.84570312 189.3125 C25.90247338 189.38434912 16.78255051 189.04414741 7.85546875 181.86328125 C-0.88506121 173.08594906 -2.25118982 162.7782853 -2.27105713 150.94761658 C-2.26716958 149.47964423 -2.26307331 148.01167242 -2.25878906 146.54370117 C-2.26150226 144.98090451 -2.26506504 143.41810914 -2.26940918 141.85531616 C-2.27849252 137.63048443 -2.27500673 133.40575085 -2.26865101 129.1809175 C-2.26357447 124.75540011 -2.26828664 120.32989091 -2.27142334 115.90437317 C-2.27505626 108.4792836 -2.2702796 101.0542339 -2.26074219 93.62915039 C-2.24983888 85.04142392 -2.2533995 76.45379228 -2.264395 67.86606807 C-2.2734632 60.488418 -2.27475605 53.11079651 -2.26951766 45.73314267 C-2.26639796 41.32835255 -2.26598903 36.92360707 -2.27259064 32.51881981 C-2.27835738 28.38276968 -2.27437963 24.24684234 -2.26280212 20.11080551 C-2.26015279 18.59141939 -2.26092528 17.07202297 -2.26532745 15.55264091 C-2.27077315 13.48268183 -2.26396128 11.41311909 -2.25396729 9.34318542 C-2.25321323 8.18382068 -2.25245918 7.02445593 -2.25168228 5.82995892 C-2 3 -2 3 0 0 Z " fill="#F65804" transform="translate(187,35)"/>
<path d="M0 0 C0.74572266 0.00217529 1.49144531 0.00435059 2.25976562 0.0065918 C4.5382459 0.00975365 6.81543021 -0.01370955 9.09375 -0.0390625 C10.53645669 -0.04133525 11.97916688 -0.0420391 13.421875 -0.04101562 C15.39800781 -0.04548706 15.39800781 -0.04548706 17.4140625 -0.05004883 C18.44789063 0.07281494 19.48171875 0.19567871 20.546875 0.32226562 C22.63466628 3.45395255 22.79821634 4.15854941 22.80757141 7.72015381 C22.81465622 8.61974319 22.82174103 9.51933258 22.82904053 10.44618225 C22.82656311 11.43106125 22.82408569 12.41594025 22.8215332 13.43066406 C22.82664413 14.47014694 22.83175507 15.50962982 22.83702087 16.58061218 C22.85096291 20.03101303 22.84995503 23.48121487 22.84765625 26.93164062 C22.85154388 29.33522618 22.85587869 31.73881104 22.86064148 34.14239502 C22.86811594 39.19309711 22.86780588 44.24372935 22.86254883 49.29443359 C22.85678707 55.73314386 22.87359922 62.17156338 22.8968935 68.61022568 C22.91171627 73.58286178 22.91249038 78.55542952 22.90938377 83.5280838 C22.90989384 85.89927999 22.91507192 88.27048033 22.92519569 90.64165497 C23.03951087 121.19354162 16.00602542 140.92811279 -5.703125 163.00976562 C-23.53085123 180.73126905 -41.21015548 189.75043026 -66.53515625 189.78125 C-67.87247803 189.77484497 -67.87247803 189.77484497 -69.23681641 189.76831055 C-71.94901005 189.75977857 -74.65910547 189.78869796 -77.37109375 189.8203125 C-94.22848301 189.88956516 -106.80216477 186.75496483 -119.328125 174.75976562 C-122.13421339 171.80073877 -124.49691464 168.90865129 -126.453125 165.32226562 C-126.123125 164.33226562 -125.793125 163.34226563 -125.453125 162.32226562 C-124.87304688 163.14210937 -124.29296875 163.96195313 -123.6953125 164.80664062 C-122.90678008 165.89556634 -122.11768748 166.98408656 -121.328125 168.07226562 C-120.56242187 169.13960937 -119.79671875 170.20695313 -119.0078125 171.30664062 C-116.3810311 174.4073673 -113.89657169 176.20674386 -110.453125 178.32226562 C-108.538946 179.84341928 -106.64968497 181.38747743 -104.7734375 182.95507812 C-98.34530853 186.74269621 -91.01784609 186.64128061 -83.77734375 186.65820312 C-82.77153763 186.66485992 -81.76573151 186.67151672 -80.72944641 186.67837524 C-78.61074642 186.68845564 -76.49201497 186.6931937 -74.37329102 186.69287109 C-71.16042859 186.6972387 -67.94894764 186.73359333 -64.73632812 186.77148438 C-62.66667131 186.77735489 -60.59700804 186.78132271 -58.52734375 186.78320312 C-57.5811467 186.79757416 -56.63494965 186.81194519 -55.66007996 186.82675171 C-34.08298006 186.681541 -16.5469795 169.75354548 -2.2734375 155.30664062 C1.42116312 151.27905025 4.52033442 146.8620765 7.546875 142.32226562 C8.206875 142.32226562 8.866875 142.32226562 9.546875 142.32226562 C9.7015625 141.51789063 9.7015625 141.51789063 9.859375 140.69726562 C10.73507032 137.67213635 12.01934661 135.07181672 13.546875 132.32226562 C14.206875 131.99226562 14.866875 131.66226563 15.546875 131.32226562 C18.3013212 123.04954233 18.99110564 114.75962536 18.97924805 106.10620117 C18.9894397 104.96313507 18.99963135 103.82006897 19.01013184 102.6423645 C19.04000271 98.91451959 19.04948805 95.1869327 19.05859375 91.45898438 C19.07545963 88.85438704 19.09361241 86.24979775 19.11299133 83.6452179 C19.15640123 77.52225682 19.18510382 71.39932183 19.20831472 65.27625448 C19.23550452 58.29656465 19.27940653 51.31700982 19.32460344 44.33741701 C19.41708362 29.99909595 19.48672558 15.66075791 19.546875 1.32226562 C9.646875 1.65226562 -0.253125 1.98226562 -10.453125 2.32226562 C-10.49070923 7.2656189 -10.49070923 7.2656189 -10.52905273 12.30883789 C-10.61255529 23.20134066 -10.70123754 34.09379684 -10.79246426 44.98623753 C-10.84761206 51.58984805 -10.90101899 58.19346307 -10.95043945 64.79711914 C-10.99820315 71.17081933 -11.05055017 77.54446695 -11.10606575 83.91810417 C-11.12643495 86.34892402 -11.14515685 88.77975826 -11.16219902 91.21060371 C-11.18636352 94.61709917 -11.21640142 98.02349627 -11.24780273 101.42993164 C-11.2535582 102.43334595 -11.25931366 103.43676025 -11.26524353 104.47058105 C-11.41802395 119.06653402 -11.41802395 119.06653402 -16.453125 125.32226562 C-17.113125 125.32226562 -17.773125 125.32226562 -18.453125 125.32226562 C-18.70964844 126.06484619 -18.96617187 126.80742676 -19.23046875 127.57250977 C-21.27932745 132.18039626 -24.90838925 135.24858589 -28.453125 138.75976562 C-29.17113281 139.49775391 -29.88914062 140.23574219 -30.62890625 140.99609375 C-35.59980063 145.96257348 -40.9122618 150.56025627 -47.453125 153.32226562 C-48.443125 152.99226562 -49.433125 152.66226563 -50.453125 152.32226562 C-49.39738281 151.80792969 -49.39738281 151.80792969 -48.3203125 151.28320312 C-39.31714831 146.51129103 -28.14711523 138.71024608 -23.453125 129.32226562 C-22.793125 129.32226562 -22.133125 129.32226562 -21.453125 129.32226562 C-21.205625 128.64164063 -20.958125 127.96101563 -20.703125 127.25976562 C-19.49768493 124.42698146 -18.03673423 121.93715373 -16.35546875 119.36132812 C-13.69221807 113.34307333 -14.29669592 106.0885671 -14.27954102 99.64526367 C-14.2695105 98.06847084 -14.2695105 98.06847084 -14.25927734 96.45982361 C-14.24527469 94.18726932 -14.23336562 91.91470135 -14.22332954 89.64212608 C-14.206873 86.04943674 -14.18363764 82.45685003 -14.15843201 78.86421204 C-14.08775221 68.65326053 -14.02733119 58.44226968 -13.97631836 48.23120117 C-13.94461063 41.97909591 -13.9033695 35.72711341 -13.85612297 29.47510719 C-13.84006886 27.09040329 -13.82776315 24.7056712 -13.81921577 22.32092857 C-13.80712439 18.9979228 -13.78300515 15.67520892 -13.75610352 12.35229492 C-13.75551437 11.36060303 -13.75492523 10.36891113 -13.75431824 9.34716797 C-13.74459991 8.44580612 -13.73488159 7.54444427 -13.72486877 6.61576843 C-13.72063684 5.83027461 -13.7164049 5.04478079 -13.71204472 4.23548412 C-12.87034194 -1.98405507 -4.72722735 0.018273 0 0 Z " fill="#F6F3F2" transform="translate(150.453125,34.677734375)"/>
<path d="M0 0 C3.04101562 -0.35644531 3.04101562 -0.35644531 6.90625 -0.328125 C7.58675415 -0.32625183 8.2672583 -0.32437866 8.96838379 -0.32244873 C10.40752052 -0.31572456 11.84663886 -0.30180264 13.28564453 -0.28125 C15.49138324 -0.2501216 17.69640727 -0.24028244 19.90234375 -0.234375 C30.67264767 -0.16367616 30.67264767 -0.16367616 33 1 C34.39355676 8.20258573 34.12700822 15.51041138 34.09765625 22.81982422 C34.09573431 24.20690355 34.09427181 25.59398357 34.0932312 26.98106384 C34.09008459 29.95316754 34.08383828 32.9252424 34.07516479 35.89733505 C34.06159363 40.59481335 34.05573866 45.29228223 34.05102539 49.98977661 C34.03995281 59.9515305 34.02039067 69.91326149 34 79.875 C33.97797557 90.65117671 33.9574202 101.42734435 33.94658184 112.20353901 C33.94159245 116.87619033 33.93172374 121.54879853 33.91815186 126.22143245 C33.91071318 129.12013026 33.90738098 132.01882208 33.9051857 134.91752815 C33.90240999 136.90902072 33.89461051 138.90050429 33.88668823 140.89198303 C33.88658249 142.65835869 33.88658249 142.65835869 33.88647461 144.4604187 C33.884254 145.48796705 33.88203339 146.5155154 33.87974548 147.57420158 C33.8374218 150.01016017 33.8374218 150.01016017 35 152 C35.67579102 152.02505615 36.35158203 152.0501123 37.04785156 152.07592773 C40.1154168 152.19210742 43.18269158 152.31473437 46.25 152.4375 C47.31347656 152.47681641 48.37695312 152.51613281 49.47265625 152.55664062 C50.49746094 152.59853516 51.52226562 152.64042969 52.578125 152.68359375 C53.99206543 152.73858032 53.99206543 152.73858032 55.43457031 152.79467773 C58 153 58 153 62 154 C62 165.22 62 176.44 62 188 C58.8545338 189.5727331 55.4820216 189.18407666 52.02734375 189.203125 C51.23026505 189.20882507 50.43318634 189.21452515 49.61195374 189.22039795 C47.9197828 189.22985621 46.22759338 189.2363852 44.53540039 189.24023438 C41.97182918 189.24987096 39.4090837 189.28085638 36.84570312 189.3125 C25.90247338 189.38434912 16.78255051 189.04414741 7.85546875 181.86328125 C-0.88506121 173.08594906 -2.25118982 162.7782853 -2.27105713 150.94761658 C-2.26716958 149.47964423 -2.26307331 148.01167242 -2.25878906 146.54370117 C-2.26150226 144.98090451 -2.26506504 143.41810914 -2.26940918 141.85531616 C-2.27849252 137.63048443 -2.27500673 133.40575085 -2.26865101 129.1809175 C-2.26357447 124.75540011 -2.26828664 120.32989091 -2.27142334 115.90437317 C-2.27505626 108.4792836 -2.2702796 101.0542339 -2.26074219 93.62915039 C-2.24983888 85.04142392 -2.2533995 76.45379228 -2.264395 67.86606807 C-2.2734632 60.488418 -2.27475605 53.11079651 -2.26951766 45.73314267 C-2.26639796 41.32835255 -2.26598903 36.92360707 -2.27259064 32.51881981 C-2.27835738 28.38276968 -2.27437963 24.24684234 -2.26280212 20.11080551 C-2.26015279 18.59141939 -2.26092528 17.07202297 -2.26532745 15.55264091 C-2.27077315 13.48268183 -2.26396128 11.41311909 -2.25396729 9.34318542 C-2.25321323 8.18382068 -2.25245918 7.02445593 -2.25168228 5.82995892 C-2 3 -2 3 0 0 Z M0 2 C-0.02271715 19.5439276 -0.04107726 37.08784232 -0.05181217 54.63178062 C-0.05693268 62.78073026 -0.06389271 70.92967 -0.07543945 79.07861328 C-0.08551786 86.19479271 -0.09188414 93.31096496 -0.09408849 100.42715132 C-0.09537367 104.18277033 -0.09831588 107.93836884 -0.10573006 111.69398117 C-0.12338797 121.1300507 -0.09945859 130.564288 0 140 C0.0126955 141.24545845 0.02539101 142.4909169 0.03847122 143.77411652 C0.08676492 147.32388523 0.16526994 150.87150118 0.25610352 154.42041016 C0.26982215 155.45109808 0.28354078 156.481786 0.29767513 157.54370689 C0.52216185 164.39774736 2.05067742 169.8139778 5 176 C5.66 176 6.32 176 7 176 C7.165 176.721875 7.33 177.44375 7.5 178.1875 C9.66089937 182.23918632 12.9389639 184.00779361 17 186 C19.74249385 186.81281947 22.17907129 187.12279522 25.03417969 187.11352539 C25.81468689 187.11344986 26.59519409 187.11337433 27.39935303 187.11329651 C28.23178528 187.10813522 29.06421753 187.10297394 29.921875 187.09765625 C30.78186096 187.0962413 31.64184692 187.09482635 32.52789307 187.09336853 C35.26863109 187.08778097 38.00928676 187.07523075 40.75 187.0625 C42.6106759 187.05748339 44.47135309 187.05292077 46.33203125 187.04882812 C50.88807792 187.03866745 55.44394701 187.01908961 60 187 C60 176.44 60 165.88 60 155 C51.48857555 154.71070625 51.48857555 154.71070625 42.97680664 154.43188477 C41.92356201 154.39377686 40.87031738 154.35566895 39.78515625 154.31640625 C38.15912476 154.26141968 38.15912476 154.26141968 36.50024414 154.20532227 C34 154 34 154 33 153 C32.89110269 151.05139494 32.8531 149.09881426 32.84178162 147.14720154 C32.8319928 145.87528961 32.82220398 144.60337769 32.81211853 143.29292297 C32.80621356 141.87033119 32.80040317 140.44773901 32.79467773 139.02514648 C32.78510465 137.53733037 32.77509491 136.049517 32.76467896 134.56170654 C32.73756208 130.51025963 32.71658937 126.45880098 32.69667697 122.40731311 C32.6748591 118.17785661 32.64744994 113.94843654 32.62062073 109.7190094 C32.57063688 101.7044292 32.52571924 93.68982884 32.48259836 85.67520911 C32.43327453 76.55320729 32.37833846 67.43124201 32.32291877 58.30927551 C32.20901137 39.53954937 32.10293249 20.76978975 32 2 C21.44 2 10.88 2 0 2 Z " fill="#F3EAE6" transform="translate(187,35)"/>
<path d="M0 0 C0.33 0 0.66 0 1 0 C1.11719379 15.55183614 1.20516355 31.1035913 1.25906086 46.65576458 C1.28475999 53.87816382 1.31974985 61.10028749 1.37719727 68.32250977 C1.42728848 74.62296254 1.45935116 80.92321559 1.47044247 87.22386199 C1.47691851 90.55521561 1.4946486 93.88554895 1.52865028 97.2168026 C1.78979681 123.87506432 1.78979681 123.87506432 -4 134 C-4.78457832 135.43619942 -4.78457832 135.43619942 -5.58500671 136.90141296 C-9.79702792 144.3094356 -15.57609601 150.35131207 -21.47558594 156.42431641 C-22.9092767 157.90622547 -24.31881319 159.41139463 -25.7265625 160.91796875 C-40.12169408 175.97128481 -56.94999525 186.68970916 -78.19618225 187.38618469 C-81.72592885 187.45091876 -85.25343243 187.4629529 -88.78369141 187.44604492 C-91.49588505 187.43751294 -94.20598047 187.46643234 -96.91796875 187.49804688 C-113.77535801 187.56729954 -126.34903977 184.4326992 -138.875 172.4375 C-141.68108839 169.47847314 -144.04378964 166.58638567 -146 163 C-145.67 162.01 -145.34 161.02 -145 160 C-144.41992188 160.81984375 -143.83984375 161.6396875 -143.2421875 162.484375 C-142.45365508 163.57330072 -141.66456248 164.66182094 -140.875 165.75 C-140.10929687 166.81734375 -139.34359375 167.8846875 -138.5546875 168.984375 C-135.9279061 172.08510167 -133.44344669 173.88447823 -130 176 C-128.085821 177.52115366 -126.19655997 179.0652118 -124.3203125 180.6328125 C-117.89218353 184.42043058 -110.56472109 184.31901498 -103.32421875 184.3359375 C-102.31841263 184.3425943 -101.31260651 184.3492511 -100.27632141 184.35610962 C-98.15762142 184.36619001 -96.03888997 184.37092808 -93.92016602 184.37060547 C-90.70730359 184.37497308 -87.49582264 184.4113277 -84.28320312 184.44921875 C-82.21354631 184.45508926 -80.14388304 184.45905709 -78.07421875 184.4609375 C-77.1280217 184.47530853 -76.18182465 184.48967957 -75.20695496 184.50448608 C-53.62985506 184.35927537 -36.0938545 167.43127986 -21.8203125 152.984375 C-18.12571188 148.95678463 -15.02654058 144.53981087 -12 140 C-11.34 140 -10.68 140 -10 140 C-9.8453125 139.195625 -9.8453125 139.195625 -9.6875 138.375 C-8.81180468 135.34987072 -7.52752839 132.7495511 -6 130 C-5.34 129.67 -4.68 129.34 -4 129 C1.04237921 116.87342368 -0.51986128 102.17105685 -0.48828125 89.35546875 C-0.47141505 86.77329159 -0.45326223 84.19112254 -0.43388367 81.60896301 C-0.39140604 75.53911068 -0.36177248 69.4693239 -0.33856028 63.39937145 C-0.31136872 56.48013931 -0.26746685 49.5610433 -0.22227156 42.641909 C-0.12979608 28.42801619 -0.057947 14.21407348 0 0 Z " fill="#ECD3C6" transform="translate(170,37)"/>
<path d="M0 0 C10.56 0 21.12 0 32 0 C32 49.5 32 99 32 150 C31.34 150 30.68 150 30 150 C29.67 100.83 29.34 51.66 29 1 C16.625 1.495 16.625 1.495 4 2 C2.24423032 10.77884841 1.84110925 19.27879784 1.79467773 28.22094727 C1.78477814 29.41219711 1.77487854 30.60344696 1.76467896 31.83079529 C1.7386611 35.06981611 1.7167301 38.30883249 1.69667697 41.54789472 C1.67467013 44.94316463 1.647354 48.33839192 1.62062073 51.73362732 C1.57089107 58.15067744 1.52587985 64.56775147 1.48259836 70.98484796 C1.43305636 78.29570752 1.37820166 85.60652426 1.32291877 92.91734231 C1.20940194 107.94485489 1.10249805 122.97240791 1 138 C0.67 138 0.34 138 0 138 C0 92.46 0 46.92 0 0 Z " fill="#E18C59" transform="translate(187,37)"/>
<path d="M0 0 C0.91001266 -0.0033284 1.82002533 -0.0066568 2.75761414 -0.01008606 C4.66433206 -0.01511255 6.57105866 -0.01749572 8.4777832 -0.01733398 C11.39614065 -0.01953837 14.31413021 -0.03778766 17.23242188 -0.05664062 C19.09244663 -0.05957188 20.95247317 -0.06155847 22.8125 -0.0625 C23.6823201 -0.06968552 24.5521402 -0.07687103 25.44831848 -0.08427429 C26.66559883 -0.07965935 26.66559883 -0.07965935 27.9074707 -0.07495117 C28.6175679 -0.07637619 29.3276651 -0.07780121 30.0592804 -0.07926941 C32.40255289 0.2082562 34.03195915 1.01179598 36.07421875 2.16796875 C36.12360024 6.54620792 36.15992915 10.92430021 36.18408203 15.30273438 C36.19414918 16.79267195 36.20780393 18.28258972 36.22509766 19.77246094 C36.24931528 21.91215903 36.26069439 24.05159628 36.26953125 26.19140625 C36.28000488 27.47966309 36.29047852 28.76791992 36.30126953 30.09521484 C36.07421875 33.16796875 36.07421875 33.16796875 34.07421875 35.16796875 C32.21713257 35.4329834 32.21713257 35.4329834 29.93505859 35.45507812 C29.0801181 35.46849243 28.22517761 35.48190674 27.34432983 35.49572754 C26.41730255 35.50100464 25.49027527 35.50628174 24.53515625 35.51171875 C23.10292221 35.53365295 23.10292221 35.53365295 21.64175415 35.55603027 C18.57761863 35.60263975 15.51354736 35.63674421 12.44921875 35.66796875 C8.43596447 35.70929008 4.42315277 35.76312827 0.41015625 35.82421875 C-0.9621666 35.8321344 -0.9621666 35.8321344 -2.36221313 35.84020996 C-13.63229524 36.01321418 -20.18440771 39.11009206 -28.55078125 46.48046875 C-35.86708824 54.75944771 -39.27801029 62.41917094 -39.12109375 73.5078125 C-39.11826385 74.27476944 -39.11543396 75.04172638 -39.11251831 75.83192444 C-39.101416 78.25660496 -39.07633092 80.68090184 -39.05078125 83.10546875 C-39.04073855 84.75976025 -39.03161497 86.4140576 -39.0234375 88.06835938 C-39.00150942 92.10170798 -38.96704968 96.13477355 -38.92578125 100.16796875 C-38.26578125 100.16796875 -37.60578125 100.16796875 -36.92578125 100.16796875 C-36.92578125 100.82796875 -36.92578125 101.48796875 -36.92578125 102.16796875 C-38.86328125 101.35546875 -38.86328125 101.35546875 -40.92578125 100.16796875 C-42.08462201 96.69144646 -42.05528084 93.96402522 -42.05859375 90.296875 C-42.05955048 89.61930649 -42.0605072 88.94173798 -42.06149292 88.24363708 C-42.06217344 86.80540881 -42.06032809 85.36717745 -42.05615234 83.92895508 C-42.0508769 81.7696199 -42.05606237 79.61049994 -42.0625 77.45117188 C-42.06663268 73.35503915 -42.0082074 69.26332747 -41.92578125 65.16796875 C-41.90741211 63.97800293 -41.88904297 62.78803711 -41.87011719 61.56201172 C-41.8240332 60.49225098 -41.77794922 59.42249023 -41.73046875 58.3203125 C-41.67995361 56.92607056 -41.67995361 56.92607056 -41.62841797 55.50366211 C-40.92578125 53.16796875 -40.92578125 53.16796875 -38.47973633 51.45825195 C-37.63693115 51.0324585 -36.79412598 50.60666504 -35.92578125 50.16796875 C-34.22813356 48.3913268 -34.22813356 48.3913268 -32.73828125 46.41796875 C-27.51137329 40.21887878 -19.87175678 33.75804025 -11.50224304 32.92745972 C-10.23982536 32.93412155 -10.23982536 32.93412155 -8.9519043 32.94091797 C-7.51097664 32.94114456 -7.51097664 32.94114456 -6.04093933 32.94137573 C-5.01680435 32.9516983 -3.99266937 32.96202087 -2.9375 32.97265625 C-1.87916458 32.97548615 -0.82082916 32.97831604 0.26957703 32.98123169 C3.64207373 32.99240585 7.01430262 33.01750568 10.38671875 33.04296875 C12.67642845 33.05300211 14.96614232 33.06212734 17.25585938 33.0703125 C22.86216478 33.09063256 28.46789278 33.12978719 34.07421875 33.16796875 C33.74421875 23.26796875 33.41421875 13.36796875 33.07421875 3.16796875 C26.24532369 3.05226834 19.41991999 2.95300547 12.59082031 2.89331055 C10.27494696 2.86838967 7.95915039 2.83444021 5.64355469 2.79077148 C-6.97948674 2.55893084 -18.17478135 2.56479945 -30.046875 7.18286133 C-32.92578125 8.16796875 -32.92578125 8.16796875 -35.92578125 7.16796875 C-24.53733449 0.9560887 -12.80327645 0.016573 0 0 Z " fill="#F0E0D6" transform="translate(94.92578125,85.83203125)"/>
<path d="M0 0 C3.07275391 -0.34057617 3.07275391 -0.34057617 6.9765625 -0.29296875 C7.66181 -0.28872391 8.3470575 -0.28447906 9.05307007 -0.28010559 C11.24411129 -0.26329753 13.43423632 -0.22564405 15.625 -0.1875 C17.10936173 -0.17245579 18.59373785 -0.15876693 20.078125 -0.14648438 C23.71904833 -0.1133879 27.35943478 -0.06159207 31 0 C31 0.66 31 1.32 31 2 C20.77 2 10.54 2 0 2 C0.108693 19.54395938 0.22092195 37.08788466 0.33933926 54.63178062 C0.39423372 62.78071221 0.44763527 70.92964809 0.49731445 79.07861328 C0.54070154 86.19481539 0.58710121 93.31099095 0.63687855 100.42715132 C0.66305001 104.18275198 0.68787663 107.93834887 0.70907402 111.69398117 C0.79074537 125.95866278 0.91609071 140.22346425 1.33227539 154.48291016 C1.35354964 155.52197699 1.37482389 156.56104382 1.39674282 157.63159752 C1.64473126 164.76369136 2.25677629 171.94326501 7.1875 177.4375 C8.0846875 178.2109375 8.0846875 178.2109375 9 179 C9 179.66 9 180.32 9 181 C5.31230056 179.77076685 4.89151667 178.71085273 2.9375 175.4375 C2.43089844 174.61121094 1.92429688 173.78492188 1.40234375 172.93359375 C-2.66249821 164.43026141 -2.28566385 155.75217937 -2.25878906 146.54370117 C-2.26150226 144.98090451 -2.26506504 143.41810914 -2.26940918 141.85531616 C-2.27849252 137.63048443 -2.27500673 133.40575085 -2.26865101 129.1809175 C-2.26357447 124.75540011 -2.26828664 120.32989091 -2.27142334 115.90437317 C-2.27505626 108.4792836 -2.2702796 101.0542339 -2.26074219 93.62915039 C-2.24983888 85.04142392 -2.2533995 76.45379228 -2.264395 67.86606807 C-2.2734632 60.488418 -2.27475605 53.11079651 -2.26951766 45.73314267 C-2.26639796 41.32835255 -2.26598903 36.92360707 -2.27259064 32.51881981 C-2.27835738 28.38276968 -2.27437963 24.24684234 -2.26280212 20.11080551 C-2.26015279 18.59141939 -2.26092528 17.07202297 -2.26532745 15.55264091 C-2.27077315 13.48268183 -2.26396128 11.41311909 -2.25396729 9.34318542 C-2.25321323 8.18382068 -2.25245918 7.02445593 -2.25168228 5.82995892 C-2 3 -2 3 0 0 Z " fill="#EFE3DA" transform="translate(187,35)"/>
<path d="M0 0 C1.25159912 0.00523682 2.50319824 0.01047363 3.79272461 0.01586914 C4.78942421 0.01799156 4.78942421 0.01799156 5.80625916 0.02015686 C7.93590735 0.02577021 10.06545175 0.03832485 12.19506836 0.05102539 C13.63582205 0.05603868 15.07657739 0.06060188 16.51733398 0.06469727 C20.05577938 0.07574394 23.59416375 0.09301747 27.13256836 0.11352539 C27.20289724 15.14387265 27.25567282 30.17420706 27.28800488 45.20468426 C27.30342156 52.18485224 27.32441052 59.16491751 27.35888672 66.14501953 C27.39217709 72.88829831 27.4094503 79.6314706 27.41720009 86.37482643 C27.42271902 88.94027187 27.43349583 91.50571185 27.44975853 94.07111168 C27.47171474 97.68002018 27.47452767 101.2884958 27.47314453 104.89746094 C27.48393036 105.94475876 27.49471619 106.99205658 27.50582886 108.0710907 C27.47475556 115.62338137 26.53676757 122.92049184 24.13256836 130.11352539 C23.47256836 130.44352539 22.81256836 130.77352539 22.13256836 131.11352539 C22.34573196 129.89546707 22.55889557 128.67740875 22.77851868 127.42243958 C25.14854872 113.02856 25.52764605 98.99981114 25.42553711 84.43774414 C25.41992471 82.0463742 25.41566242 79.65500076 25.41267395 77.2636261 C25.40135441 71.04460712 25.372002 64.82580666 25.33856201 58.60687256 C25.30757925 52.23086501 25.29410903 45.85482129 25.27905273 39.47875977 C25.24711686 27.02358693 25.19608146 14.5685745 25.13256836 2.11352539 C24.2542334 2.3569165 24.2542334 2.3569165 23.3581543 2.60522461 C20.05150358 3.36042939 16.75539017 3.25733295 13.38256836 3.23852539 C12.36549805 3.24432617 12.36549805 3.24432617 11.32788086 3.25024414 C10.64983398 3.24895508 9.97178711 3.24766602 9.27319336 3.24633789 C8.36875488 3.244646 8.36875488 3.244646 7.44604492 3.24291992 C3.9930648 3.04979208 0.56423915 2.54248424 -2.86743164 2.11352539 C-2.86743164 38.08352539 -2.86743164 74.05352539 -2.86743164 111.11352539 C-3.19743164 111.11352539 -3.52743164 111.11352539 -3.86743164 111.11352539 C-3.89076184 96.78858113 -3.908345 82.4636398 -3.91924381 68.13868046 C-3.92447338 61.4877901 -3.93157236 54.83691753 -3.94287109 48.18603516 C-3.95369735 41.77349662 -3.95970792 35.36097035 -3.96230888 28.94842339 C-3.96416361 26.49588261 -3.96778511 24.04334254 -3.9731617 21.59080696 C-3.98036866 18.16875862 -3.98142273 14.74676168 -3.98095703 11.32470703 C-3.98455231 10.29972107 -3.98814758 9.27473511 -3.99185181 8.21868896 C-3.99047714 7.29175735 -3.98910248 6.36482574 -3.98768616 5.4098053 C-3.98860795 4.59954926 -3.98952974 3.78929323 -3.99047947 2.95448399 C-3.78387312 -0.1366208 -3.13262969 0.12402493 0 0 Z " fill="#E47B39" transform="translate(142.867431640625,35.886474609375)"/>
<path d="M0 0 C1.41089653 0.00022659 1.41089653 0.00022659 2.85029602 0.00045776 C3.85255722 0.01078033 4.85481842 0.02110291 5.88745117 0.03173828 C6.92359055 0.03456818 7.95972992 0.03739807 9.02726746 0.04031372 C12.32843699 0.05148624 15.62933273 0.07658573 18.93041992 0.10205078 C21.17195246 0.11208435 23.41348925 0.12120955 25.6550293 0.12939453 C31.14275252 0.151416 36.63031666 0.18486457 42.11791992 0.22705078 C42.11791992 0.55705078 42.11791992 0.88705078 42.11791992 1.22705078 C41.56605515 1.22403458 41.01419037 1.22101837 40.44560242 1.21791077 C34.65274119 1.1931691 28.86151676 1.21774674 23.06884766 1.26977539 C20.91296266 1.28283941 18.75696545 1.28371938 16.60107422 1.27172852 C-0.52399901 0.90833962 -0.52399901 0.90833962 -14.88208008 9.22705078 C-16.19438599 10.26128174 -16.19438599 10.26128174 -17.53320312 11.31640625 C-20.00638253 13.328162 -21.6729753 15.31414195 -23.50708008 17.91455078 C-24.0768457 18.70216797 -24.64661133 19.48978516 -25.23364258 20.30126953 C-30.71719727 30.0339294 -30.24329726 39.41529196 -30.06958008 50.28955078 C-30.05450759 51.93472084 -30.04082372 53.57990423 -30.02856445 55.22509766 C-29.9957579 59.22608219 -29.94411774 63.22641709 -29.88208008 67.22705078 C-29.22208008 67.22705078 -28.56208008 67.22705078 -27.88208008 67.22705078 C-27.88208008 67.88705078 -27.88208008 68.54705078 -27.88208008 69.22705078 C-29.81958008 68.41455078 -29.81958008 68.41455078 -31.88208008 67.22705078 C-33.04092084 63.75052849 -33.01157967 61.02310725 -33.01489258 57.35595703 C-33.0158493 56.67838852 -33.01680603 56.00082001 -33.01779175 55.30271912 C-33.01847226 53.86449084 -33.01662692 52.42625948 -33.01245117 50.98803711 C-33.00717573 48.82870193 -33.0123612 46.66958197 -33.01879883 44.51025391 C-33.02293151 40.41412118 -32.96450623 36.3224095 -32.88208008 32.22705078 C-32.86371094 31.03708496 -32.8453418 29.84711914 -32.82641602 28.62109375 C-32.78033203 27.55133301 -32.73424805 26.48157227 -32.68676758 25.37939453 C-32.65309082 24.4498999 -32.61941406 23.52040527 -32.5847168 22.56274414 C-31.88208008 20.22705078 -31.88208008 20.22705078 -29.43603516 18.51733398 C-28.59322998 18.09154053 -27.7504248 17.66574707 -26.88208008 17.22705078 C-25.18443239 15.45040883 -25.18443239 15.45040883 -23.69458008 13.47705078 C-17.77176111 6.4526134 -9.53252188 -0.05138826 0 0 Z " fill="#EEDAD0" transform="translate(85.882080078125,118.77294921875)"/>
<path d="M0 0 C0.99750778 -0.00307663 1.99501556 -0.00615326 3.02275085 -0.00932312 C4.09265762 -0.0021376 5.16256439 0.00504791 6.26489258 0.01245117 C7.36666336 0.01290939 8.46843414 0.01336761 9.60359192 0.01383972 C11.92942382 0.01685856 14.25525376 0.02473382 16.58105469 0.03710938 C20.156078 0.0554028 23.7308429 0.05761877 27.3059082 0.05737305 C29.56307192 0.06228686 31.82023387 0.06811459 34.07739258 0.07495117 C35.69136177 0.07662041 35.69136177 0.07662041 37.3379364 0.07832336 C38.3259877 0.08470322 39.314039 0.09108307 40.33203125 0.09765625 C41.20599045 0.10146805 42.07994965 0.10527985 42.98039246 0.10920715 C44.97192383 0.24291992 44.97192383 0.24291992 45.97192383 1.24291992 C46.05975925 3.46147256 46.07886992 5.68280488 46.06958008 7.90307617 C46.06708252 9.11874268 46.06458496 10.33440918 46.06201172 11.58691406 C46.05290771 13.144021 46.04380371 14.70112793 46.03442383 16.30541992 C46.01379883 21.23479492 45.99317383 26.16416992 45.97192383 31.24291992 C20.72692383 31.73791992 20.72692383 31.73791992 -5.02807617 32.24291992 C-2.60839505 29.8232388 -1.99853922 29.98305394 1.31396484 29.93994141 C2.66029747 29.91497841 2.66029747 29.91497841 4.03382874 29.88951111 C5.00468918 29.88109695 5.97554962 29.8726828 6.97583008 29.86401367 C8.46626076 29.83852196 8.46626076 29.83852196 9.98680115 29.81251526 C13.16927704 29.75925448 16.35173897 29.71902553 19.53442383 29.68041992 C22.72061235 29.6365634 25.9066969 29.58991832 29.09275818 29.53761292 C31.07808162 29.50553748 33.0634972 29.47868491 35.04896545 29.4573822 C35.94336838 29.44389236 36.8377713 29.43040253 37.75927734 29.41650391 C38.94602806 29.4022361 38.94602806 29.4022361 40.15675354 29.38768005 C41.99228103 29.43878119 41.99228103 29.43878119 42.97192383 28.24291992 C43.22394267 24.62486122 43.15714917 20.99371913 43.15942383 17.36791992 C43.17779297 15.83844727 43.17779297 15.83844727 43.1965332 14.27807617 C43.1984668 13.29967773 43.20040039 12.3212793 43.20239258 11.31323242 C43.20650146 10.41362793 43.21061035 9.51402344 43.21484375 8.5871582 C43.12787046 5.97202341 43.12787046 5.97202341 40.97192383 3.24291992 C38.20030771 2.98760413 35.65445636 2.91928894 32.88598633 2.98510742 C32.0738266 2.99172394 31.26166687 2.99834045 30.42489624 3.00515747 C27.8151918 3.028607 25.20632545 3.07220848 22.59692383 3.11791992 C19.1933373 3.1646848 15.78973881 3.20272859 12.38598633 3.23510742 C11.56761292 3.24378845 10.7492395 3.25246948 9.90606689 3.26141357 C3.55320924 3.30270032 -2.71330203 2.97111871 -9.02807617 2.24291992 C-5.89190237 0.41075763 -3.61494492 -0.00587823 0 0 Z " fill="#E87732" transform="translate(83.028076171875,87.757080078125)"/>
<path d="M0 0 C0.33 0 0.66 0 1 0 C1.02339131 13.96055217 1.04094321 27.92110128 1.05181217 41.88166904 C1.05702893 48.36423485 1.0641047 54.84678748 1.07543945 61.3293457 C1.08631117 67.58629931 1.09228594 73.84324024 1.09487724 80.10020256 C1.09672376 82.48638038 1.10032951 84.87255751 1.10573006 87.25872993 C1.11299729 90.60292174 1.11398853 93.94706132 1.11352539 97.29125977 C1.11712067 98.2759726 1.12071594 99.26068542 1.12442017 100.27523804 C1.10288779 114.6600485 1.10288779 114.6600485 -4 121 C-4.66 121 -5.32 121 -6 121 C-6.38478516 122.11387085 -6.38478516 122.11387085 -6.77734375 123.25024414 C-8.82620245 127.85813064 -12.45526425 130.92632027 -16 134.4375 C-16.71800781 135.17548828 -17.43601562 135.91347656 -18.17578125 136.67382812 C-23.14667563 141.64030786 -28.4591368 146.23799064 -35 149 C-35.99 148.67 -36.98 148.34 -38 148 C-36.94425781 147.48566406 -36.94425781 147.48566406 -35.8671875 146.9609375 C-26.86402331 142.18902541 -15.69399023 134.38798046 -11 125 C-10.34 125 -9.68 125 -9 125 C-8.7525 124.319375 -8.505 123.63875 -8.25 122.9375 C-7 120 -7 120 -4.9375 116.625 C-2.83830103 113.07431029 -2.33376514 110.08862298 -2 106 C-1.34 106 -0.68 106 0 106 C0 71.02 0 36.04 0 0 Z " fill="#E7CBBB" transform="translate(138,39)"/>
<path d="M0 0 C0.66 0.33 1.32 0.66 2 1 C1.22398438 1.63164063 0.44796875 2.26328125 -0.3515625 2.9140625 C-23.95729392 22.32739291 -23.95729392 22.32739291 -35 50 C-35.25386455 53.43264511 -35.28140869 56.84417443 -35.265625 60.28515625 C-35.26753845 61.22628769 -35.2694519 62.16741913 -35.27142334 63.1370697 C-35.27277427 65.11099518 -35.26915488 67.08492988 -35.26074219 69.05883789 C-35.25001498 72.05831057 -35.26068117 75.05718609 -35.2734375 78.05664062 C-35.27211595 79.98698047 -35.26955364 81.91731995 -35.265625 83.84765625 C-35.26967346 84.73228043 -35.27372192 85.6169046 -35.27789307 86.52833557 C-35.23502095 92.29480667 -34.42259381 97.40816093 -33 103 C-37.32058626 99.23941701 -37.72188323 94.28638225 -38.18765259 88.78259277 C-38.27744359 86.53476265 -38.30345842 84.29646457 -38.30078125 82.046875 C-38.30506638 81.22479553 -38.3093515 80.40271606 -38.31376648 79.5557251 C-38.31946847 77.82801222 -38.32004083 76.10027536 -38.31567383 74.37255859 C-38.3125243 71.77007721 -38.33598864 69.16874687 -38.36132812 66.56640625 C-38.44283792 45.41928422 -32.80828235 30.21962353 -18 15 C-17.34 15 -16.68 15 -16 15 C-15.67 14.01 -15.34 13.02 -15 12 C-13.28561252 10.43579853 -11.5043823 8.94387998 -9.6875 7.5 C-8.72199219 6.7265625 -7.75648437 5.953125 -6.76171875 5.15625 C-4.52600682 3.41068708 -2.27873373 1.68875279 0 0 Z " fill="#F0E5E0" transform="translate(57,94)"/>
<path d="M0 0 C8.58 0 17.16 0 26 0 C26 10.56 26 21.12 26 32 C20.59179752 32.06913895 15.18514892 32.12879084 9.77685547 32.16479492 C7.93988834 32.17981496 6.10295666 32.20023709 4.26611328 32.22631836 C1.61481946 32.26300202 -1.03599732 32.27979438 -3.6875 32.29296875 C-4.49928711 32.30845261 -5.31107422 32.32393646 -6.14746094 32.33988953 C-11.74834816 32.34151618 -15.91047915 31.39781244 -21 29 C-21.66 28.01 -22.32 27.02 -23 26 C-21.1858073 26.28094582 -19.37364999 26.57506433 -17.5625 26.875 C-16.04849609 27.11863281 -16.04849609 27.11863281 -14.50390625 27.3671875 C-13.67761719 27.57601562 -12.85132813 27.78484375 -12 28 C-11.67 28.66 -11.34 29.32 -11 30 C0.88 30.33 12.76 30.66 25 31 C25 21.1 25 11.2 25 1 C16.75 1 8.5 1 0 1 C0 0.67 0 0.34 0 0 Z " fill="#E0632A" transform="translate(221,190)"/>
<path d="M0 0 C0.99 0.33 1.98 0.66 3 1 C3.04938149 5.37823917 3.0857104 9.75633146 3.10986328 14.13476562 C3.11993043 15.6247032 3.13358518 17.11462097 3.15087891 18.60449219 C3.17509653 20.74419028 3.18647564 22.88362753 3.1953125 25.0234375 C3.21102295 26.95582275 3.21102295 26.95582275 3.22705078 28.92724609 C3 32 3 32 1 34 C-1.10073853 34.2784729 -1.10073853 34.2784729 -3.72509766 34.31884766 C-5.19639633 34.34865219 -5.19639633 34.34865219 -6.69741821 34.37905884 C-8.28965714 34.39638565 -8.28965714 34.39638565 -9.9140625 34.4140625 C-11.54122696 34.44311172 -11.54122696 34.44311172 -13.20126343 34.4727478 C-16.67576159 34.53266426 -20.15029267 34.57897739 -23.625 34.625 C-25.97657718 34.66316865 -28.32814021 34.70221971 -30.6796875 34.7421875 C-36.4529997 34.83837559 -42.22639666 34.92338753 -48 35 C-45.56241092 32.56241092 -44.89665856 32.7360108 -41.55029297 32.68115234 C-40.62948944 32.66128265 -39.70868591 32.64141296 -38.75997925 32.62094116 C-37.76410797 32.60938995 -36.76823669 32.59783875 -35.7421875 32.5859375 C-34.72399933 32.56657135 -33.70581116 32.5472052 -32.6567688 32.5272522 C-29.39626511 32.46734645 -26.13572633 32.42102701 -22.875 32.375 C-20.66795313 32.33683035 -18.46092131 32.29777923 -16.25390625 32.2578125 C-10.83601467 32.15997247 -5.4182886 32.0804906 0 32 C0 21.44 0 10.88 0 0 Z " fill="#F6F3F1" transform="translate(128,87)"/>
<path d="M0 0 C0.33 0 0.66 0 1 0 C1.05498128 1.37453198 1.09322822 2.74973578 1.125 4.125 C1.14820313 4.89070312 1.17140625 5.65640625 1.1953125 6.4453125 C1 9 1 9 0.00390625 11.6640625 C-1.37278832 16.23875962 -1.25428049 20.50075313 -1.1875 25.25 C-1.17960449 26.21494385 -1.17170898 27.1798877 -1.16357422 28.17407227 C-1.09053398 34.43238584 -0.92461672 40.68589466 -0.625 46.9375 C-0.5943042 47.65131836 -0.5636084 48.36513672 -0.53198242 49.10058594 C-0.33563168 52.51700747 0.13505994 55.46025745 1.1015625 58.75390625 C1.99759351 61.99130523 1.9442566 62.94878277 1 66 C-2.2281537 59.11266708 -3.59366537 53.40430846 -3.49609375 45.8203125 C-3.49754898 44.88629608 -3.49900421 43.95227966 -3.50050354 42.98995972 C-3.4988554 41.02859353 -3.48741716 39.06721293 -3.46655273 37.10595703 C-3.43763719 34.13907611 -3.44596061 31.17399243 -3.45898438 28.20703125 C-3.44633415 18.40835525 -3.24367413 9.34919561 0 0 Z " fill="#E17441" transform="translate(24,132)"/>
<path d="M0 0 C0.66 0.33 1.32 0.66 2 1 C1.319375 1.33 0.63875 1.66 -0.0625 2 C-3.44729921 4.30454414 -5.73725869 6.93953075 -8.3515625 10.0625 C-10 12 -10 12 -11.7109375 13.625 C-13.22798038 14.92905298 -13.22798038 14.92905298 -13 17 C-15.90567134 19.01782732 -18.51669784 20.35494404 -22 21 C-22 21.66 -22 22.32 -22 23 C-23.32 22.67 -24.64 22.34 -26 22 C-6.73972603 2.24657534 -6.73972603 2.24657534 0 0 Z " fill="#E68242" transform="translate(62,93)"/>
<path d="M0 0 C0.66 0 1.32 0 2 0 C1.67 11.55 1.34 23.1 1 35 C0.34 35 -0.32 35 -1 35 C-1.0246519 30.17619198 -1.04283693 25.35242033 -1.05493164 20.52856445 C-1.05997174 18.88630536 -1.06680378 17.24405077 -1.07543945 15.60180664 C-1.08751926 13.24624521 -1.09323139 10.89074291 -1.09765625 8.53515625 C-1.10281754 7.79660904 -1.10797882 7.05806183 -1.11329651 6.2971344 C-1.1134925 4.53101912 -1.06194719 2.76502854 -1 1 C-0.67 0.67 -0.34 0.34 0 0 Z " fill="#E17746" transform="translate(52,147)"/>
<path d="M0 0 C0.99 0 1.98 0 3 0 C3 1.65 3 3.3 3 5 C-8.88 5 -20.76 5 -33 5 C-33 4.01 -33 3.02 -33 2 C-32.67 2.66 -32.34 3.32 -32 4 C-31.46987305 3.83701416 -30.93974609 3.67402832 -30.39355469 3.50610352 C-27.44630323 2.88292397 -24.71610855 2.88813156 -21.703125 2.90234375 C-20.49785156 2.90556641 -19.29257813 2.90878906 -18.05078125 2.91210938 C-16.79652344 2.92048828 -15.54226562 2.92886719 -14.25 2.9375 C-12.34541016 2.94426758 -12.34541016 2.94426758 -10.40234375 2.95117188 C-7.26818164 2.96295444 -4.13411459 2.97940584 -1 3 C-0.67 2.01 -0.34 1.02 0 0 Z " fill="#EC480C" transform="translate(243,216)"/>
<path d="M0 0 C0.33 0 0.66 0 1 0 C1.01458252 0.74048584 1.02916504 1.48097168 1.04418945 2.24389648 C1.11927222 5.64225413 1.21573281 9.0396934 1.3125 12.4375 C1.34633789 14.18450195 1.34633789 14.18450195 1.38085938 15.96679688 C1.72144875 27.56666081 1.72144875 27.56666081 7.1875 37.4375 C8.0846875 38.2109375 8.0846875 38.2109375 9 39 C9 39.66 9 40.32 9 41 C4.66751238 39.55583746 3.48628113 37.04301399 1.25683594 33.17285156 C-1.14462676 27.11041776 -0.61702861 20.77581949 -0.375 14.375 C-0.34483305 12.97531842 -0.3174692 11.57557349 -0.29296875 10.17578125 C-0.22275684 6.7822056 -0.12444584 3.39194681 0 0 Z " fill="#E18B65" transform="translate(187,175)"/>
<path d="M0 0 C9.57 0 19.14 0 29 0 C28.67 0.99 28.34 1.98 28 3 C28 2.34 28 1.68 28 1 C15.625 1.495 15.625 1.495 3 2 C2.33320544 5.3339728 1.78812136 8.45655274 1.4375 11.8125 C1.35371094 12.60269531 1.26992187 13.39289062 1.18359375 14.20703125 C1.12300781 14.79871094 1.06242188 15.39039063 1 16 C0.67 16 0.34 16 0 16 C0 10.72 0 5.44 0 0 Z " fill="#EA7417" transform="translate(188,37)"/>
<path d="M0 0 C0.33 0 0.66 0 1 0 C1.2665212 18.034601 1.2665212 18.034601 -4 25 C-4.625 23.25 -4.625 23.25 -5 21 C-4.35191436 19.65753688 -3.68177416 18.32567199 -3 17 C-2.61250787 14.67504723 -2.27017161 12.34148732 -2 10 C-1.34 10 -0.68 10 0 10 C0 6.7 0 3.4 0 0 Z " fill="#E9CABE" transform="translate(138,135)"/>
<path d="M0 0 C0.66 0.33 1.32 0.66 2 1 C2 1.99 2 2.98 2 4 C-0.87501211 6.07639763 -3.51375944 7.3543999 -7 8 C-7 8.66 -7 9.32 -7 10 C-8.32 9.67 -9.64 9.34 -11 9 C-9.73548068 7.68141572 -8.46314525 6.37032369 -7.1875 5.0625 C-6.47980469 4.33160156 -5.77210937 3.60070312 -5.04296875 2.84765625 C-3 1 -3 1 0 0 Z " fill="#E86E26" transform="translate(47,106)"/>
<path d="M0 0 C3.63764599 3.42366681 6.62226067 7.0350223 9.57421875 11.0625 C11.31627003 13.42978065 13.1467821 15.71911643 15 18 C8.38525588 15.04077237 3.5302354 9.2132143 0 3 C0 2.01 0 1.02 0 0 Z " fill="#F0E0DB" transform="translate(24,197)"/>
<path d="M0 0 C-0.70125 0.556875 -1.4025 1.11375 -2.125 1.6875 C-3.62312437 2.89251308 -5.11654077 4.10789708 -6.52734375 5.4140625 C-8.0625 6.8125 -8.0625 6.8125 -11 9 C-13.18359375 8.63671875 -13.18359375 8.63671875 -15 8 C-13.45025019 6.65186813 -11.88462935 5.3219657 -10.3125 4 C-9.44238281 3.2575 -8.57226562 2.515 -7.67578125 1.75 C-4.76416967 -0.15423648 -3.39853912 -0.39190361 0 0 Z " fill="#F2D9CB" transform="translate(79,122)"/>
<path d="M0 0 C1 2 1 2 0.0625 5.25 C-2.0080594 9.90875864 -5.8315462 12.29694089 -10 15 C-8.68747786 12.25342589 -7.24706499 9.74276346 -5.5 7.25 C-5.0771875 6.63640625 -4.654375 6.0228125 -4.21875 5.390625 C-3.8165625 4.93171875 -3.414375 4.4728125 -3 4 C-2.34 4 -1.68 4 -1 4 C-0.67 2.68 -0.34 1.36 0 0 Z " fill="#EEC9B8" transform="translate(161,173)"/>
<path d="M0 0 C0 3 0 3 -1.4375 4.5 C-1.953125 4.995 -2.46875 5.49 -3 6 C-3.33 6.99 -3.66 7.98 -4 9 C-5.97321053 10.3726682 -7.97543152 11.70427617 -10 13 C-11.79394446 14.62351109 -11.79394446 14.62351109 -13 16 C-13.66 15.67 -14.32 15.34 -15 15 C-10.05 10.05 -5.1 5.1 0 0 Z " fill="#DB8560" transform="translate(128,166)"/>
<path d="M0 0 C1.8141927 0.28094582 3.62635001 0.57506433 5.4375 0.875 C6.95150391 1.11863281 6.95150391 1.11863281 8.49609375 1.3671875 C9.32238281 1.57601562 10.14867187 1.78484375 11 2 C11.33 2.66 11.66 3.32 12 4 C15.02934491 4.65772428 15.02934491 4.65772428 18 5 C18 5.33 18 5.66 18 6 C11.8094402 6.33163713 7.6468807 5.62872033 2 3 C1.34 2.01 0.68 1.02 0 0 Z " fill="#E57045" transform="translate(198,216)"/>
<path d="M0 0 C0.66 0.33 1.32 0.66 2 1 C-5.40384615 8.82692308 -5.40384615 8.82692308 -10.8125 9.1875 C-11.8953125 9.0946875 -11.8953125 9.0946875 -13 9 C-10.71141653 6.47517566 -8.37656871 4.96866677 -5.375 3.375 C-2.49917615 1.94660084 -2.49917615 1.94660084 0 0 Z " fill="#EED0C6" transform="translate(125,210)"/>
<path d="M0 0 C3 2 3 2 3.9375 4.875 C5.0890223 8.2618303 6.43191094 9.60311688 9 12 C9 12.66 9 13.32 9 14 C5.23193471 12.74397824 4.78753493 11.48987433 2.8125 8.125 C2.28269531 7.24070313 1.75289062 6.35640625 1.20703125 5.4453125 C0 3 0 3 0 0 Z " fill="#EFDDD6" transform="translate(187,202)"/>
<path d="M0 0 C0.99 0.33 1.98 0.66 3 1 C4.33599181 4.00598158 5.14345053 6.09147996 4.625 9.375 C4.41875 9.91125 4.2125 10.4475 4 11 C4 10.34 4 9.68 4 9 C3.01 8.67 2.02 8.34 1 8 C0.67 5.36 0.34 2.72 0 0 Z " fill="#EB602A" transform="translate(190,202)"/>
<path d="M0 0 C0 3 0 3 -1.75 5.04296875 C-2.4925 5.75066406 -3.235 6.45835937 -4 7.1875 C-4.7425 7.90292969 -5.485 8.61835938 -6.25 9.35546875 C-6.8275 9.89816406 -7.405 10.44085938 -8 11 C-8.33 10.01 -8.66 9.02 -9 8 C-6.03 5.36 -3.06 2.72 0 0 Z " fill="#F4E6E0" transform="translate(154,185)"/>
<path d="M0 0 C0.99 0.66 1.98 1.32 3 2 C0.69 4.64 -1.62 7.28 -4 10 C-4.33 8.68 -4.66 7.36 -5 6 C-4.01 6 -3.02 6 -2 6 C-1.855625 5.195625 -1.71125 4.39125 -1.5625 3.5625 C-1 1 -1 1 0 0 Z " fill="#EB5E21" transform="translate(152,181)"/>
<path d="M0 0 C0.6875 1.625 0.6875 1.625 1 4 C-0.4375 7.25 -0.4375 7.25 -2 10 C-2.99 10 -3.98 10 -5 10 C-3.84414715 6.08788267 -2.64465038 3.1254959 0 0 Z " fill="#E0804C" transform="translate(30,122)"/>
<path d="M0 0 C7.625 0.875 7.625 0.875 11 2 C11 2.66 11 3.32 11 4 C3.49230769 3.38461538 3.49230769 3.38461538 1 1.4375 C0.67 0.963125 0.34 0.48875 0 0 Z " fill="#E36E40" transform="translate(45,217)"/>
<path d="M0 0 C2.00720923 0.28674418 4.0085944 0.61866701 6 1 C2.80331012 3.6486859 -0.39486597 5.93992341 -4 8 C-4 6.68 -4 5.36 -4 4 C-2.68 4 -1.36 4 0 4 C-0.33 3.01 -0.66 2.02 -1 1 C-0.67 0.67 -0.34 0.34 0 0 Z " fill="#ED681A" transform="translate(72,119)"/>
<path d="M0 0 C3.62528568 -0.20140476 5.86501708 0.14223235 9 2 C9 3.32 9 4.64 9 6 C5.88802644 4.50164236 2.91164984 2.86022073 0 1 C0 0.67 0 0.34 0 0 Z " fill="#E85718" transform="translate(34,209)"/>
<path d="M0 0 C0 3.20395416 -0.74335022 5.09399739 -2 8 C-2.66 8 -3.32 8 -4 8 C-4.33 8.99 -4.66 9.98 -5 11 C-5.44041451 5.62694301 -5.44041451 5.62694301 -5 3 C-2.5 1 -2.5 1 0 0 Z " fill="#E99972" transform="translate(59,136)"/>
<path d="M0 0 C0.33 1.32 0.66 2.64 1 4 C-0.32 4.99 -1.64 5.98 -3 7 C-3.66 6.67 -4.32 6.34 -5 6 C-2.25 1.125 -2.25 1.125 0 0 Z " fill="#E17342" transform="translate(134,159)"/>
<path d="M0 0 C0.66 0.66 1.32 1.32 2 2 C1.68134222 5.29279709 0.45484649 6.86535088 -2 9 C-1.125 1.125 -1.125 1.125 0 0 Z " fill="#EB580E" transform="translate(137,154)"/>
<path d="M0 0 C1.65 0 3.3 0 5 0 C0.25 4.875 0.25 4.875 -2 6 C-2 5.01 -2 4.02 -2 3 C-1.34 3 -0.68 3 0 3 C0 2.01 0 1.02 0 0 Z " fill="#E85D24" transform="translate(133,200)"/>
<path d="M0 0 C0.75 1.625 0.75 1.625 1 4 C-0.9375 7.25 -0.9375 7.25 -3 10 C-3.6875 8.1875 -3.6875 8.1875 -4 6 C-2.625 4.4375 -2.625 4.4375 -1 3 C-0.67 2.01 -0.34 1.02 0 0 Z " fill="#E4A88E" transform="translate(137,150)"/>
<path d="M0 0 C0.33 0.99 0.66 1.98 1 3 C-0.32 4.32 -1.64 5.64 -3 7 C-3.99 6.67 -4.98 6.34 -6 6 C-4.02 4.02 -2.04 2.04 0 0 Z " fill="#EED7CC" transform="translate(144,194)"/>
<path d="M0 0 C0.66 0 1.32 0 2 0 C1.46930939 3.82097239 0.50298434 6.06171403 -2 9 C-1.125 1.125 -1.125 1.125 0 0 Z " fill="#EA5E1F" transform="translate(161,168)"/>
<path d="M0 0 C0.99 0 1.98 0 3 0 C4.06775224 1.96466413 5.06553465 3.96855359 6 6 C5.67 6.66 5.34 7.32 5 8 C4.16382818 6.8562364 3.33113541 5.70992861 2.5 4.5625 C2.0359375 3.92441406 1.571875 3.28632813 1.09375 2.62890625 C0 1 0 1 0 0 Z " fill="#E56735" transform="translate(28,201)"/>
</svg>
